<svg xmlns="http://www.w3.org/2000/svg" viewBox="0 0 24 24" fill="none" stroke-width="1.5" stroke-linecap="round" stroke-linejoin="round">
  <!-- Notebook shell -->
  <g stroke="#a1a1aa">
    <path d="M2 6h4" />
    <path d="M2 10h4" />
    <path d="M2 14h4" />
    <path d="M2 18h4" />
    <rect width="18" height="22" x="3" y="1" rx="2" />
  </g>
  <!-- Package box -->
  <g stroke="#3b6fd4">
    <path d="M19 8.5a1 1 0 0 0-.5-.87l-4.5-2.5a1 1 0 0 0-1 0l-4.5 2.5A1 1 0 0 0 8 8.5v5a1 1 0 0 0 .5.87l4.5 2.5a1 1 0 0 0 1 0l4.5-2.5a1 1 0 0 0 .5-.87Z" />
    <path d="m8.3 7.5 5.7 3.2 5.7-3.2" />
    <path d="M14 17V10.7" />
  </g>
</svg>
